<svg xmlns="http://www.w3.org/2000/svg" viewBox="0 0 735.563 326.913">
  <defs>
    <clipPath id="a" clipPathUnits="userSpaceOnUse">
      <path d="M0 841.89h1190.55V0H0z"/>
    </clipPath>
  </defs>
  <path d="M40.247 163.459l327.53-145.572 327.539 145.572-327.539 145.566zM367.777 0L0 163.459l367.777 163.454L735.563 163.46z"/>
  <g clip-path="url(#a)" transform="matrix(1.33333 0 0 -1.33333 -280.66 724.868)">
    <path d="M654.451 410.722c.494 9.73-8.02 19.587-18.562 15.938-2.897-1.003-4.933-1.893-6.75-2.602v15.766l30.448-.088-42.707 19.009v-49.666s18.557 7.68 18.65 7.68c4.688 1.983 6.411.222 7.454-2.455 1.081-2.77.655-5.656-4.05-7.767-.937-.42-20.842-9.264-43.502-19.335 3.658 9.395 5.83 21.098 5.83 33.792 0 30.954-12.9 56.043-28.814 56.043-15.909 0-28.812-25.09-28.812-56.043 0-15.731 3.336-29.936 8.701-40.114l10.497 6.34c-4.118 7.496-6.938 18.167-6.938 33.774 0 27.16 10.715 43.785 16.552 43.785S589 448.155 589 420.994c0-25.877-8.734-40.096-15.602-43.585-4.713-2.093-41.022-18.097-45.355-20.023 0 20.912-.042 61.415-.042 70.003 0 18.203-22.912 17.867-41.673 6.759v82.672l-12.258-5.448v-167.21s-44.605 15.382-44.605 76.967c0 31.116 13.227 58.058 32.346 70.722v14.045c-26.075-13-44.607-46.038-44.607-84.767l.002-.14c-.002-.001-.007-.003-.009-.006 0-31.48-36.606-35.128-47.76-30.175-32.239 14.36-33.31 23.715-33.31 30.04 0 7.222 8.021 19.964 33.24 30.43 8.115 3.368 12.621 5.575 16.63 4.315 4.054-2.028 4.008-29.282-1.128-32.707-4.144-2.521-7.769-.976-15.338 4.609-7.139-3.973-11.51-5.825-11.51-5.825s13.46-9.19 21.894-10.587c6.261-1.037 13.83 1.035 15.947 8.83 10.992 40.446.541 56.763-31.474 42.568-32.718-14.506-40.523-31.39-40.523-41.633 0-10.243.921-23.66 40.523-41.21 13.714-6.08 41.767-4.318 56.144 13.662 6.622-26.924 22.591-48.348 42.901-57.715l22.895-10.287v95.696s29.412 17.84 29.412.946c0-11.308.046-83.482.046-83.482l129.893 57.618-.008.01c6.031 3.148 8.447 8.023 8.78 14.636"/>
  </g>
</svg>
